<svg xmlns="http://www.w3.org/2000/svg" xmlns:xlink="http://www.w3.org/1999/xlink" width="80" zoomAndPan="magnify" viewBox="0 0 60 60" height="80" preserveAspectRatio="xMidYMid meet" version="1.0"><defs><g/></defs><g fill="#fafafa" fill-opacity="1"><g transform="translate(2.707031, 45.795299)"><g><path d="M 11.21875 0.609375 C 9.582031 0.609375 8.097656 0.296875 6.765625 -0.328125 C 5.429688 -0.953125 4.375 -1.851562 3.59375 -3.03125 C 2.8125 -4.207031 2.421875 -5.632812 2.421875 -7.3125 C 2.421875 -8.789062 2.707031 -9.988281 3.28125 -10.90625 C 3.863281 -11.832031 4.640625 -12.554688 5.609375 -13.078125 C 6.585938 -13.609375 7.664062 -14.003906 8.84375 -14.265625 C 10.03125 -14.535156 11.222656 -14.75 12.421875 -14.90625 C 13.984375 -15.101562 15.253906 -15.253906 16.234375 -15.359375 C 17.210938 -15.472656 17.925781 -15.65625 18.375 -15.90625 C 18.832031 -16.164062 19.0625 -16.613281 19.0625 -17.25 L 19.0625 -17.390625 C 19.0625 -19.046875 18.609375 -20.332031 17.703125 -21.25 C 16.804688 -22.164062 15.445312 -22.625 13.625 -22.625 C 11.738281 -22.625 10.253906 -22.207031 9.171875 -21.375 C 8.097656 -20.550781 7.347656 -19.671875 6.921875 -18.734375 L 3.15625 -20.078125 C 3.820312 -21.640625 4.71875 -22.859375 5.84375 -23.734375 C 6.96875 -24.617188 8.195312 -25.234375 9.53125 -25.578125 C 10.875 -25.929688 12.195312 -26.109375 13.5 -26.109375 C 14.320312 -26.109375 15.269531 -26.007812 16.34375 -25.8125 C 17.425781 -25.625 18.472656 -25.226562 19.484375 -24.625 C 20.503906 -24.019531 21.347656 -23.109375 22.015625 -21.890625 C 22.691406 -20.671875 23.03125 -19.035156 23.03125 -16.984375 L 23.03125 0 L 19.0625 0 L 19.0625 -3.484375 L 18.859375 -3.484375 C 18.597656 -2.929688 18.148438 -2.332031 17.515625 -1.6875 C 16.890625 -1.050781 16.054688 -0.507812 15.015625 -0.0625 C 13.984375 0.382812 12.71875 0.609375 11.21875 0.609375 Z M 11.8125 -2.953125 C 13.382812 -2.953125 14.707031 -3.257812 15.78125 -3.875 C 16.863281 -4.488281 17.679688 -5.28125 18.234375 -6.25 C 18.785156 -7.226562 19.0625 -8.253906 19.0625 -9.328125 L 19.0625 -12.953125 C 18.894531 -12.753906 18.53125 -12.570312 17.96875 -12.40625 C 17.40625 -12.25 16.753906 -12.109375 16.015625 -11.984375 C 15.285156 -11.867188 14.578125 -11.769531 13.890625 -11.6875 C 13.203125 -11.601562 12.644531 -11.535156 12.21875 -11.484375 C 11.1875 -11.347656 10.222656 -11.128906 9.328125 -10.828125 C 8.441406 -10.535156 7.726562 -10.09375 7.1875 -9.5 C 6.644531 -8.914062 6.375 -8.117188 6.375 -7.109375 C 6.375 -5.734375 6.882812 -4.695312 7.90625 -4 C 8.9375 -3.300781 10.238281 -2.953125 11.8125 -2.953125 Z M 11.8125 -2.953125 "/></g></g></g><g fill="#fafafa" fill-opacity="1"><g transform="translate(29.358901, 45.795299)"><g><path d="M 7.59375 -15.515625 L 7.59375 0 L 3.625 0 L 3.625 -34.375 L 7.59375 -34.375 L 7.59375 -21.75 L 7.921875 -21.75 C 8.523438 -23.082031 9.429688 -24.140625 10.640625 -24.921875 C 11.859375 -25.710938 13.484375 -26.109375 15.515625 -26.109375 C 18.148438 -26.109375 20.269531 -25.3125 21.875 -23.71875 C 23.488281 -22.132812 24.296875 -19.6875 24.296875 -16.375 L 24.296875 0 L 20.34375 0 L 20.34375 -16.109375 C 20.34375 -18.160156 19.8125 -19.75 18.75 -20.875 C 17.695312 -22 16.238281 -22.5625 14.375 -22.5625 C 12.414062 -22.5625 10.796875 -21.945312 9.515625 -20.71875 C 8.234375 -19.488281 7.59375 -17.753906 7.59375 -15.515625 Z M 7.59375 -15.515625 "/></g></g></g></svg>